# xmcd CD database file
#
# Track frame offsets:
#	150
#	34619
#	58841
#	85198
#	109366
#	127056
#	150965
#	168276
#	184544
#	205255
#	226543
#	248778
#	278030
#
# Disc length: 3971 seconds
#
# Revision: 0
# Processed by: cddbd v1.5.2PL0 Copyright (c) Steve Scherf et al.
# Submitted via: CDex 1.51
#
DISCID=a20f810d
DTITLE=The Rough Guide - Salsa Dance (second ed)
DYEAR=2007
DGENRE=Salsa
TTITLE0=Macolla-Homenaje a la musica latina
TTITLE1=Jimmy Bosch-que bonito es son~ar
TTITLE2=Wayne Gorbea
TTITLE3=Cubanoson-recordado a cuba
TTITLE4=sonora carruseles-el gato boogaloo
TTITLE5=Kekele-consequence
TTITLE6=Ricardo lemvo-papa na bana
TTITLE7=Angel melendez-ven pa' que goze
TTITLE8=Alex Wilson-Latino
TTITLE9=Grupo caribe-sobre una tumba una rumba
TTITLE10=Yumuri y sus hermanos-mi salsa tiene candela
TTITLE11=Bio ritmo-atrevete
TTITLE12=Fruko-la maquina del sabor
EXTD=YEAR: 2007
EXTT0=
EXTT1=
EXTT2=
EXTT3=
EXTT4=
EXTT5=
EXTT6=
EXTT7=
EXTT8=
EXTT9=
EXTT10=
EXTT11=
EXTT12=
PLAYORDER=
